:version 1.10
:name ASF
:units
  mass 1
  length 1
  angle deg
:documentation
  ASF file generated by Kaydara
:root
  axis xyz
  order  tx ty tz rx ry rz
  position 0 0 0
  orientation 0 0 0
:bonedata
  begin
    id 1
    name RightUpLegDummy
    direction -0.718183 -0.695806 0.00816078
    length 4.904
    axis 0 0 0 xyz
  end
  begin
    id 2
    name RightUpLeg
    direction 3.53373e-006 -0.995788 0.0916898
    length 17.4976
    axis -3.49089 -0.000906625 0.000286804 xyz
    dof rx ry rz
  end
  begin
    id 3
    name RightLeg
    direction 0.00371092 -0.995096 -0.0988419
    length 16.5821
    axis 3.68512 0.0193738 -0.131023 xyz
    dof rx ry rz
  end
  begin
    id 4
    name RightFoot
    direction 0.00079151 -0.46099 0.887405
    length 3.77069
    axis 4.81691e-005 -0.120479 -0.188788 xyz
    dof rx ry rz
  end
  begin
    id 5
    name RightToes
    direction 0 0 0
    length 0
    axis 0 0 0 xyz
    dof rx ry rz
  end
  begin
    id 6
    name SpineDummy
    direction 8.3039e-015 1 4.57515e-016
    length 4.6813
    axis 0 0 0 xyz
  end
  begin
    id 7
    name Spine
    direction -3.15643e-008 0.999988 0.00495137
    length 10.1015
    axis -0.001389 0.000121418 2.40972e-006 xyz
    dof rx ry rz
  end
  begin
    id 8
    name Spine1
    direction 0 0 0
    length 0
    axis -0.001389 0.000121451 1.30017e-006 xyz
    dof rx ry rz
  end
  begin
    id 9
    name HEadDummy
    direction -1.99912e-008 0.999999 0.00127422
    length 3.43865
    axis -0.001389 0.000121451 1.30017e-006 xyz
  end
  begin
    id 10
    name HEad
    direction 0 0 0
    length 0
    axis 0 0 0 xyz
    dof rx ry rz
  end
  begin
    id 11
    name LeftShoulder1Dummy
    direction 0.998891 -0.0402509 -0.0244456
    length 3.5433
    axis -0.001389 0.000121451 1.30017e-006 xyz
  end
  begin
    id 12
    name LeftShoulder1
    direction 0.99951 -0.000327763 0.0313091
    length 4.05031
    axis -0.001389 0.000121451 1.30017e-006 xyz
    dof rx ry rz
  end
  begin
    id 13
    name LeftArm
    direction 0.998561 -0.00100056 -0.0536182
    length 10.3537
    axis -23.1894 0.134784 0.967509 xyz
    dof rx ry rz
  end
  begin
    id 14
    name LeftForeArm
    direction 0.998903 0.00866432 0.046012
    length 8.70632
    axis -9.91835 -0.06569 -0.177794 xyz
    dof rx ry rz
  end
  begin
    id 15
    name LeftHand
    direction 0 0 0
    length 0
    axis 0 0 0 xyz
    dof rx ry rz
  end
  begin
    id 16
    name RightShoulderDummy
    direction -0.998891 -0.0402509 -0.0244414
    length 3.5433
    axis -0.001389 0.000121451 1.30017e-006 xyz
  end
  begin
    id 17
    name RightShoulder
    direction -0.99951 -0.000327807 0.0313133
    length 4.05031
    axis 0.215806 0.000203643 -0.0068026 xyz
    dof rx ry rz
  end
  begin
    id 18
    name RightArm
    direction -0.998573 -0.000999564 -0.053403
    length 10.3947
    axis -23.2009 -0.134239 -0.964101 xyz
    dof rx ry rz
  end
  begin
    id 19
    name RightForeArm
    direction -0.998898 0.00868028 0.0461306
    length 8.68355
    axis -9.92322 0.0658061 0.178868 xyz
    dof rx ry rz
  end
  begin
    id 20
    name RightHand
    direction 0 0 0
    length 0
    axis 0 0 0 xyz
    dof rx ry rz
  end
  begin
    id 21
    name LeftUpLegDummy
    direction 0.718183 -0.695806 0.00816078
    length 4.904
    axis 0 0 0 xyz
  end
  begin
    id 22
    name LeftUpLeg
    direction -6.81752e-006 -0.995793 0.0916337
    length 17.4976
    axis -3.48766 0.00143442 -0.000524262 xyz
    dof rx ry rz
  end
  begin
    id 23
    name LeftLeg
    direction -0.00601358 -0.995091 -0.0987824
    length 16.5821
    axis 3.68178 -0.00654042 -0.000285133 xyz
    dof rx ry rz
  end
  begin
    id 24
    name LeftFoot
    direction -0.00417578 -0.460984 0.887399
    length 3.77069
    axis 1.87233e-006 4.66016e-005 -8.6538e-006 xyz
    dof rx ry rz
  end
  begin
    id 25
    name LeftToes
    direction 0 0 0
    length 0
    axis 0 0 0 xyz
    dof rx ry rz
  end
:hierarchy
  begin
    root RightUpLegDummy SpineDummy LeftUpLegDummy
    RightUpLegDummy RightUpLeg
    RightUpLeg RightLeg
    RightLeg RightFoot
    RightFoot RightToes
    SpineDummy Spine
    Spine Spine1
    Spine1 HEadDummy LeftShoulder1Dummy RightShoulderDummy
    HEadDummy HEad
    LeftShoulder1Dummy LeftShoulder1
    LeftShoulder1 LeftArm
    LeftArm LeftForeArm
    LeftForeArm LeftHand
    RightShoulderDummy RightShoulder
    RightShoulder RightArm
    RightArm RightForeArm
    RightForeArm RightHand
    LeftUpLegDummy LeftUpLeg
    LeftUpLeg LeftLeg
    LeftLeg LeftFoot
    LeftFoot LeftToes
  end

:SAMPLES-PER-SECOND 30
:FULLY-SPECIFIED
:DEGREES
79
root  29.9106 39.276 2.00745 -59.7186 -88.3466 59.8221
RightUpLeg  -29.6558 -16.3568 0.903255
RightLeg  22.1096 -4.467 -2.22612
RightFoot  -3.06212 -0.660581 8.79572
RightToes  0.000481921 0.542163 -0.142578
Spine  21.8613 -6.07586 -21.393
Spine1  -3.51525 -14.1359 26.7195
HEad  -4.13481 13.5104 1.5807
LeftShoulder1  3.77414 -6.27306 -32.5311
LeftArm  -37.687 3.19355 -23.3188
LeftForeArm  122.558 -81.2619 -93.3216
LeftHand  -0.25398 0.0180481 5.50724
RightShoulder  1.21476 1.04371 20.3847
RightArm  -14.9628 -52.2463 32.4804
RightForeArm  96.312 79.7479 97.4731
RightHand  -0.481769 1.0463 -8.85305
LeftUpLeg  9.59354 7.06642 2.50749
LeftLeg  11.5176 6.0336 -2.62621
LeftFoot  -16.7164 -0.1334 -4.93891
LeftToes  1.06247e-005 4.65869e-005 -8.65512e-006
80
root  28.1181 39.0406 1.87201 -18.0744 -85.5276 18.9568
RightUpLeg  -27.8355 -21.1974 1.5893
RightLeg  17.558 -3.49955 -1.32812
RightFoot  -1.71522 -0.635163 7.48893
RightToes  0.000481921 0.542163 -0.142578
Spine  21.6031 -6.48117 -23.0416
Spine1  -5.56233 -14.8847 31.2489
HEad  -8.30519 15.539 -0.155509
LeftShoulder1  3.51682 -5.28525 -33.9085
LeftArm  -33.2912 3.87378 -27.5465
LeftForeArm  94.633 -80.3525 -67.5915
LeftHand  -0.25398 0.0180481 5.50724
RightShoulder  1.08477 0.471026 20.9127
RightArm  -25.1684 -50.025 37.0408
RightForeArm  120.944 78.7126 118.193
RightHand  -0.397776 0.728603 -7.70969
LeftUpLeg  10.5068 8.14542 3.45967
LeftLeg  13.2093 1.08085 -2.07836
LeftFoot  -17.9648 -0.306425 -7.0656
LeftToes  1.06247e-005 4.65869e-005 -8.65512e-006
81
root  26.2751 38.939 1.83892 -5.93353 -83.5343 7.46149
RightUpLeg  -26.2877 -24.7672 2.52533
RightLeg  17.5271 -2.96398 -0.624824
RightFoot  0.534117 -0.322964 3.14768
RightToes  0.000481921 0.542163 -0.142578
Spine  19.4323 -6.04258 -18.9617
Spine1  -6.22927 -13.1708 30.8801
HEad  -14.0164 16.1541 -3.67434
LeftShoulder1  4.29123 -6.16559 -38.0348
LeftArm  -26.7182 4.92673 -32.3625
LeftForeArm  59.972 -72.5631 -30.387
LeftHand  -0.25398 0.0180481 5.50724
RightShoulder  1.61055 1.73374 24.4612
RightArm  -37.1366 -46.979 40.3454
RightForeArm  128.232 76.9567 129.8
RightHand  -0.519561 0.402083 -10.3668
LeftUpLeg  10.1322 8.55729 4.89385
LeftLeg  17.303 -2.22453 -0.729143
LeftFoot  -16.9991 -0.459889 -11.7344
LeftToes  1.06247e-005 4.65869e-005 -8.65512e-006
82
root  24.4827 38.9029 1.88677 11.1269 -84.3464 -9.81787
RightUpLeg  -24.7317 -24.2683 3.87784
RightLeg  20.2237 -2.7627 -0.74443
RightFoot  0.781324 0.208301 -1.99393
RightToes  0.000481921 0.542163 -0.142578
Spine  16.4094 -4.15143 -8.91529
Spine1  -5.42601 -8.49705 23.2111
HEad  -20.0931 15.6939 -7.76874
LeftShoulder1  6.07676 -8.86518 -42.6639
LeftArm  -20.3155 7.94995 -34.819
LeftForeArm  46.9048 -54.8723 -12.048
LeftHand  -0.25398 0.0180481 5.50724
RightShoulder  2.59113 3.67902 30.0519
RightArm  -42.4761 -38.3727 37.418
RightForeArm  108.391 78.048 118.214
RightHand  -0.951792 1.6858 -15.6019
LeftUpLeg  7.24037 5.92628 6.18641
LeftLeg  27.2315 0.525336 0.744941
LeftFoot  -10.6922 0.140512 -15.1764
LeftToes  1.06247e-005 4.65869e-005 -8.65512e-006
83
root  22.8338 38.9317 1.96641 50.9461 -86.4616 -50.6901
RightUpLeg  -22.2724 -20.0938 4.78439
RightLeg  22.8665 -3.19645 -1.48163
RightFoot  -1.50633 0.351866 -4.13715
RightToes  0.000481921 0.542163 -0.142578
Spine  14.591 -1.64845 3.57834
Spine1  -3.51488 -2.69781 10.849
HEad  -25.0762 15.2735 -11.1908
LeftShoulder1  7.74119 -11.232 -45.8274
LeftArm  -14.878 12.1308 -33.7122
LeftForeArm  40.1337 -31.2157 -4.90381
LeftHand  -0.25398 0.0180481 5.50724
RightShoulder  3.74549 5.5689 35.3171
RightArm  -38.8773 -23.4871 28.1965
RightForeArm  50.6278 77.4223 61.4634
RightHand  -1.55155 4.45286 -18.5996
LeftUpLeg  1.90487 5.64232 7.57043
LeftLeg  41.4964 2.65238 2.86657
LeftFoot  1.26864 1.44802 -13.5188
LeftToes  1.06247e-005 4.65869e-005 -8.65512e-006
